<svg width="20" height="20" viewBox="0 0 20 20" fill="none" xmlns="http://www.w3.org/2000/svg">
<path fill-rule="evenodd" clip-rule="evenodd" d="M11.7016 0.776848C11.7058 0.352034 11.3648 0.00424463 10.94 3.85007e-05C10.5152 -0.00416769 10.1674 0.336802 10.1632 0.761616L10.154 1.68953C10.1513 1.78486 10.0798 1.84615 10.0001 1.84615H9.9724C9.02984 1.84615 8.28933 2.61604 8.28933 3.53846C8.28933 3.59018 8.29166 3.64136 8.29623 3.69191H7.23077C4.84721 3.69191 2.9786 4.16391 1.7253 5.41721C0.472001 6.67051 0 8.53912 0 10.9227V12.7688C0 15.1524 0.472001 17.021 1.7253 18.2743C2.9786 19.5276 4.84721 19.9996 7.23077 19.9996H12.7692C15.1528 19.9996 17.0214 19.5276 18.2747 18.2743C19.528 17.021 20 15.1524 20 12.7688V10.9227C20 8.53912 19.528 6.67051 18.2747 5.41721C17.0214 4.16391 15.1528 3.69191 12.7692 3.69191H9.97086C9.89272 3.68609 9.82779 3.6177 9.82779 3.53846C9.82779 3.4455 9.89958 3.38462 9.9724 3.38462H10.0001C10.9352 3.38462 11.6756 2.63445 11.6923 1.71552L11.6923 1.71552L11.6924 1.70916L11.7016 0.776848ZM9.94455 5.23037C9.95688 5.23064 9.96924 5.23077 9.98163 5.23077H10.9047C10.9131 5.23077 10.9215 5.23064 10.9298 5.23037H12.7692C15.0011 5.23037 16.3632 5.68145 17.1868 6.50507C18.0105 7.32869 18.4615 8.69085 18.4615 10.9227V12.7688C18.4615 15.0007 18.0105 16.3628 17.1868 17.1864C16.3632 18.0101 15.0011 18.4611 12.7692 18.4611H7.23077C4.99895 18.4611 3.63678 18.0101 2.81316 17.1864C1.98954 16.3628 1.53846 15.0007 1.53846 12.7688V10.9227C1.53846 8.69085 1.98954 7.32869 2.81316 6.50507C3.63678 5.68145 4.99895 5.23037 7.23077 5.23037H9.94455ZM14.2562 10.018C14.2562 9.45158 13.797 8.99239 13.2305 8.99239C12.6641 8.99239 12.2049 9.45158 12.2049 10.018V10.0365C12.2049 10.6029 12.6641 11.0621 13.2305 11.0621C13.797 11.0621 14.2562 10.6029 14.2562 10.0365V10.018ZM8.30109 10.9686C8.6015 10.6682 8.6015 10.1812 8.30109 9.88075C8.00069 9.58035 7.51364 9.58035 7.21324 9.88075L6.34897 10.745L5.51275 9.9088C5.21235 9.60839 4.7253 9.60839 4.4249 9.9088C4.12449 10.2092 4.12449 10.6963 4.4249 10.9967L5.26112 11.8329L4.39785 12.6961C4.09745 12.9965 4.09745 13.4836 4.39785 13.784C4.69826 14.0844 5.18531 14.0844 5.48571 13.784L6.34897 12.9207L7.24028 13.812C7.54068 14.1124 8.02774 14.1124 8.32814 13.812C8.62854 13.5116 8.62854 13.0246 8.32814 12.7242L7.43683 11.8329L8.30109 10.9686ZM10.3862 11.847C10.3862 11.2805 10.8454 10.8213 11.4119 10.8213H11.4211C11.9876 10.8213 12.4468 11.2805 12.4468 11.847C12.4468 12.4134 11.9876 12.8726 11.4211 12.8726H11.4119C10.8454 12.8726 10.3862 12.4134 10.3862 11.847ZM15.0492 10.8213C14.4828 10.8213 14.0236 11.2805 14.0236 11.847C14.0236 12.4134 14.4828 12.8726 15.0492 12.8726H15.0584C15.6249 12.8726 16.0841 12.4134 16.0841 11.847C16.0841 11.2805 15.6249 10.8213 15.0584 10.8213H15.0492ZM13.2305 12.6302C13.797 12.6302 14.2562 13.0894 14.2562 13.6559V13.6743C14.2562 14.2408 13.797 14.7 13.2305 14.7C12.6641 14.7 12.2049 14.2408 12.2049 13.6743V13.6559C12.2049 13.0894 12.6641 12.6302 13.2305 12.6302Z" fill="white"/>
</svg>
