<svg width="40" height="40" viewBox="0 0 40 40" fill="none" xmlns="http://www.w3.org/2000/svg">
<path fill-rule="evenodd" clip-rule="evenodd" d="M8.37907 10.371C7.73192 11.0109 7.41675 12.1755 7.41675 14.5193V14.584H22.0001C22.4143 14.584 22.7501 14.9198 22.7501 15.334C22.7501 15.7482 22.4143 16.084 22.0001 16.084H7.41675V25.4793C7.41675 27.8232 7.73192 28.9878 8.37907 29.6277C9.02917 30.2705 10.2141 30.5827 12.5867 30.5827H27.4134C29.7861 30.5827 30.971 30.2705 31.6211 29.6277C32.2682 28.9878 32.5834 27.8232 32.5834 25.4793V18.706C32.5834 18.2918 32.9192 17.956 33.3334 17.956C33.7476 17.956 34.0834 18.2918 34.0834 18.706V25.4793C34.0834 27.8155 33.8053 29.5775 32.6757 30.6943C31.5492 31.8082 29.7741 32.0827 27.4134 32.0827H12.5867C10.2261 32.0827 8.45099 31.8082 7.32443 30.6943C6.19491 29.5775 5.91675 27.8155 5.91675 25.4793V15.334V14.5193C5.91675 12.1832 6.19491 10.4212 7.32443 9.30436C8.45099 8.19047 10.2261 7.91602 12.5867 7.91602H22.0001C22.4143 7.91602 22.7501 8.2518 22.7501 8.66602C22.7501 9.08023 22.4143 9.41602 22.0001 9.41602H12.5867C10.2141 9.41602 9.02917 9.72822 8.37907 10.371ZM11.2501 26C11.2501 25.5858 11.5858 25.25 12.0001 25.25H14.6667C15.0809 25.25 15.4167 25.5858 15.4167 26C15.4167 26.4142 15.0809 26.75 14.6667 26.75H12.0001C11.5858 26.75 11.2501 26.4142 11.2501 26ZM18.0001 25.25C17.5858 25.25 17.2501 25.5858 17.2501 26C17.2501 26.4142 17.5858 26.75 18.0001 26.75H23.3334C23.7476 26.75 24.0834 26.4142 24.0834 26C24.0834 25.5858 23.7476 25.25 23.3334 25.25H18.0001ZM28.5304 14.5297L33.8637 9.19635C34.1566 8.90345 34.1566 8.42858 33.8637 8.13569C33.5708 7.84279 33.096 7.84279 32.8031 8.13569L28.0001 12.9387L26.5304 11.469C26.2375 11.1761 25.7626 11.1761 25.4697 11.469C25.1768 11.7619 25.1768 12.2368 25.4697 12.5297L27.4697 14.5297C27.7626 14.8226 28.2375 14.8226 28.5304 14.5297Z" fill="white"/>
</svg>
