<svg width="68" height="71" viewBox="0 0 68 71" fill="none" xmlns="http://www.w3.org/2000/svg">
<path d="M26.5 54V59.9242C26.5 64.9436 22.0245 69 16.514 69C11.0035 69 6.5 64.9436 6.5 59.9242V54C6.5 59.0194 10.9756 62.5797 16.514 62.5797C22.0245 62.5797 26.5 58.9903 26.5 54Z" stroke="white" stroke-width="3" stroke-linecap="round" stroke-linejoin="round"/>
<path d="M26.5 45.4817C26.5 46.9304 26.1089 48.2632 25.4385 49.4221C23.7905 52.2326 20.4105 54 16.4999 54C12.5893 54 9.20935 52.2036 7.5613 49.4221C6.89091 48.2632 6.5 46.9304 6.5 45.4817C6.5 42.99 7.61726 40.759 9.40498 39.1365C11.2206 37.485 13.7066 36.5 16.472 36.5C19.2373 36.5 21.7235 37.514 23.5391 39.1365C25.3827 40.7301 26.5 42.99 26.5 45.4817Z" stroke="white" stroke-width="3" stroke-linecap="round" stroke-linejoin="round"/>
<path d="M26.5 45.3352V53.1477C26.5 58.0341 22.0245 61.5 16.514 61.5C11.0035 61.5 6.5 58.0057 6.5 53.1477V45.3352C6.5 40.4488 10.9756 36.5 16.514 36.5C19.2832 36.5 21.7728 37.4942 23.591 39.0852C25.3812 40.6761 26.5 42.892 26.5 45.3352Z" stroke="white" stroke-width="3" stroke-linecap="round" stroke-linejoin="round"/>
<path d="M34 66.5C51.94 66.5 66.5 51.94 66.5 34C66.5 16.06 51.94 1.5 34 1.5C16.06 1.5 1.5 16.06 1.5 34" stroke="white" stroke-width="3" stroke-linecap="round" stroke-linejoin="round"/>
<path d="M46.5 44L37.0024 37.97C35.348 36.927 34 34.4172 34 32.3638V19" stroke="white" stroke-width="3" stroke-linecap="round" stroke-linejoin="round"/>
</svg>
