<svg width="20" height="17" viewBox="0 0 20 17" fill="none" xmlns="http://www.w3.org/2000/svg">
<path fill-rule="evenodd" clip-rule="evenodd" d="M9.48718 0C9.06235 0 8.71795 0.344396 8.71795 0.769231C8.71795 1.19407 9.06235 1.53846 9.48718 1.53846H14.8352C16.0359 1.53846 16.9191 1.83876 17.4986 2.37687C18.0677 2.9054 18.4615 3.77299 18.4615 5.16484V11.3187C18.4615 12.7105 18.0677 13.5781 17.4986 14.1066C16.9191 14.6448 16.0359 14.9451 14.8352 14.9451H0.769231C0.344396 14.9451 0 15.2895 0 15.7143C0 16.1391 0.344396 16.4835 0.769231 16.4835H14.8352C16.2718 16.4835 17.5864 16.1245 18.5454 15.234C19.5147 14.334 20 13.0038 20 11.3187V5.16484C20 3.47976 19.5147 2.14954 18.5454 1.2495C17.5864 0.359038 16.2718 0 14.8352 0H9.48718ZM1.64832 3.95633C1.22349 3.95633 0.879094 4.30073 0.879094 4.72556C0.879094 5.1504 1.22349 5.49479 1.64832 5.49479H6.92305C7.34788 5.49479 7.69228 5.1504 7.69228 4.72556C7.69228 4.30073 7.34788 3.95633 6.92305 3.95633H1.64832ZM0.879094 7.36178C0.879094 6.93694 1.22349 6.59255 1.64832 6.59255H5.16481C5.58964 6.59255 5.93404 6.93694 5.93404 7.36178C5.93404 7.78661 5.58964 8.13101 5.16481 8.13101H1.64832C1.22349 8.13101 0.879094 7.78661 0.879094 7.36178ZM1.64832 9.23077C1.22349 9.23077 0.879094 9.57517 0.879094 10C0.879094 10.4248 1.22349 10.7692 1.64832 10.7692H3.40657C3.8314 10.7692 4.1758 10.4248 4.1758 10C4.1758 9.57517 3.8314 9.23077 3.40657 9.23077H1.64832ZM10.4395 6.3742C9.40779 6.3742 8.5714 7.21059 8.5714 8.24233C8.5714 9.27407 9.40779 10.1105 10.4395 10.1105C11.4713 10.1105 12.3077 9.27407 12.3077 8.24233C12.3077 7.21059 11.4713 6.3742 10.4395 6.3742ZM7.03294 8.24233C7.03294 6.36092 8.55812 4.83574 10.4395 4.83574C12.3209 4.83574 13.8461 6.36092 13.8461 8.24233C13.8461 10.1237 12.3209 11.6489 10.4395 11.6489C8.55812 11.6489 7.03294 10.1237 7.03294 8.24233ZM16.9231 6.04367C16.9231 5.61884 16.5787 5.27444 16.1538 5.27444C15.729 5.27444 15.3846 5.61884 15.3846 6.04367V10.4393C15.3846 10.8641 15.729 11.2085 16.1538 11.2085C16.5787 11.2085 16.9231 10.8641 16.9231 10.4393V6.04367Z" fill="white"/>
</svg>
