<svg width="24" height="24" viewBox="0 0 24 24" fill="none" xmlns="http://www.w3.org/2000/svg">
<path d="M13.7402 22H9.74019M17.7402 9C17.7402 7.41 17.1102 5.88001 15.9802 4.76001C14.8602 3.63001 13.3302 3 11.7402 3C10.1502 3 8.6202 3.63001 7.5002 4.76001C6.3702 5.88001 5.74019 7.41 5.74019 9C5.74019 12.09 4.96016 14.2101 4.09016 15.6101C3.36016 16.7901 2.9902 17.38 3.0002 17.54C3.0202 17.72 3.05015 17.7899 3.20015 17.8999C3.33015 17.9999 3.9302 18 5.1302 18H18.3502C19.5502 18 20.1502 17.9999 20.2802 17.8999C20.4302 17.7899 20.4602 17.72 20.4802 17.54C20.4902 17.38 20.1202 16.7901 19.3902 15.6101" stroke="#BABABA" stroke-width="1.5" stroke-linecap="round" stroke-linejoin="round"/>
<path d="M15 7C16.6569 7 18 5.65685 18 4C18 2.34315 16.6569 1 15 1C13.3431 1 12 2.34315 12 4C12 5.65685 13.3431 7 15 7Z" fill="#DE2E42"/>
</svg>
