<svg width="80" height="80" viewBox="0 0 80 80" fill="none" xmlns="http://www.w3.org/2000/svg">
<g filter="url(#filter0_d_0_2175)">
<g clip-path="url(#clip0_0_2175)">
<rect x="16" y="12" width="48" height="48" rx="24" fill="#292929"/>
<path d="M40 13.7C40 13.0373 40.5376 12.4969 41.1995 12.53C46.7294 12.8065 51.9954 14.9878 56.1012 18.7024C56.5926 19.1471 56.5907 19.9093 56.122 20.378C55.6534 20.8466 54.8957 20.8438 54.4018 20.4019C50.7495 17.1342 46.0926 15.2053 41.1995 14.9333C40.5378 14.8965 40 14.3627 40 13.7Z" fill="#FAB20B"/>
<path fill-rule="evenodd" clip-rule="evenodd" d="M31.3716 27.9009C30.979 28.2935 30.75 29.0485 30.75 30.7393C30.75 31.1535 30.4142 31.4893 30 31.4893C29.5858 31.4893 29.25 31.1535 29.25 30.7393C29.25 29.0601 29.441 27.7101 30.3109 26.8402C31.1808 25.9703 32.5308 25.7793 34.21 25.7793H44.74C46.4192 25.7793 47.7692 25.9703 48.6391 26.8402C49.509 27.7101 49.7 29.0601 49.7 30.7393C49.7 31.1535 49.3642 31.4893 48.95 31.4893C48.5358 31.4893 48.2 31.1535 48.2 30.7393C48.2 29.0485 47.971 28.2935 47.5784 27.9009C47.1858 27.5083 46.4308 27.2793 44.74 27.2793H34.21C32.5192 27.2793 31.7642 27.5083 31.3716 27.9009ZM30 34.0996C30.4142 34.0996 30.75 34.4354 30.75 34.8496V36.1992H38C38.4142 36.1992 38.75 36.535 38.75 36.9492C38.75 37.3634 38.4142 37.6992 38 37.6992H30.7806C30.8551 38.736 31.0627 39.2692 31.3716 39.578C31.7642 39.9706 32.5192 40.1996 34.21 40.1996H37.9755L37.9842 40.1994L38 40.1992C38.4142 40.1992 38.75 40.535 38.75 40.9492V40.9496V45.4692L38.75 45.4748C38.7478 45.8871 38.4128 46.2207 38 46.2207H34.74C34.3258 46.2207 33.99 45.8849 33.99 45.4707C33.99 45.0565 34.3258 44.7207 34.74 44.7207H37.25V41.6996H34.21C32.5308 41.6996 31.1808 41.5086 30.3109 40.6387C29.4863 39.814 29.2717 38.5579 29.2516 36.9989C29.2505 36.9825 29.25 36.9659 29.25 36.9492C29.25 36.938 29.2502 36.9269 29.2507 36.9158C29.2502 36.8575 29.25 36.7987 29.25 36.7396V34.8496C29.25 34.4354 29.5858 34.0996 30 34.0996ZM40.5909 33.9008C41.2734 33.2183 42.311 33.0898 43.49 33.0898H47.04C48.219 33.0898 49.2567 33.2183 49.9391 33.9008C50.6216 34.5832 50.75 35.6208 50.75 36.7998C50.75 37.2141 50.4142 37.5498 50 37.5498C49.5858 37.5498 49.25 37.2141 49.25 36.7998C49.25 35.6088 49.0835 35.1665 48.8784 34.9614C48.6734 34.7564 48.231 34.5898 47.04 34.5898H43.49C42.299 34.5898 41.8567 34.7564 41.6516 34.9614C41.4466 35.1665 41.28 35.6088 41.28 36.7998V42.5098C41.28 43.7008 41.4466 44.1432 41.6516 44.3483C41.8567 44.5533 42.299 44.7198 43.49 44.7198H47.04C48.231 44.7198 48.6734 44.5533 48.8784 44.3483C49.0835 44.1432 49.25 43.7008 49.25 42.5098V40.9398C49.25 40.5256 49.5858 40.1898 50 40.1898C50.4142 40.1898 50.75 40.5256 50.75 40.9398V42.5098C50.75 43.6888 50.6216 44.7265 49.9391 45.4089C49.2567 46.0914 48.219 46.2198 47.04 46.2198H43.49C42.311 46.2198 41.2734 46.0914 40.5909 45.4089C39.9085 44.7265 39.78 43.6888 39.78 42.5098V36.7998C39.78 35.6208 39.9085 34.5832 40.5909 33.9008ZM45.2445 41.25C44.6922 41.25 44.2445 41.6977 44.2445 42.25C44.2445 42.8023 44.6922 43.25 45.2445 43.25H45.2535C45.8058 43.25 46.2535 42.8023 46.2535 42.25C46.2535 41.6977 45.8058 41.25 45.2535 41.25H45.2445Z" fill="#F5F5F5"/>
</g>
</g>
<defs>
<filter id="filter0_d_0_2175" x="0" y="0" width="80" height="80" filterUnits="userSpaceOnUse" color-interpolation-filters="sRGB">
<feFlood flood-opacity="0" result="BackgroundImageFix"/>
<feColorMatrix in="SourceAlpha" type="matrix" values="0 0 0 0 0 0 0 0 0 0 0 0 0 0 0 0 0 0 127 0" result="hardAlpha"/>
<feOffset dy="4"/>
<feGaussianBlur stdDeviation="8"/>
<feComposite in2="hardAlpha" operator="out"/>
<feColorMatrix type="matrix" values="0 0 0 0 0 0 0 0 0 0 0 0 0 0 0 0 0 0 0.4 0"/>
<feBlend mode="normal" in2="BackgroundImageFix" result="effect1_dropShadow_0_2175"/>
<feBlend mode="normal" in="SourceGraphic" in2="effect1_dropShadow_0_2175" result="shape"/>
</filter>
<clipPath id="clip0_0_2175">
<rect x="16" y="12" width="48" height="48" rx="24" fill="white"/>
</clipPath>
</defs>
</svg>
