<svg width="12" height="12" viewBox="0 0 12 12" fill="none" xmlns="http://www.w3.org/2000/svg">
<g opacity="0.8">
<path d="M5.3613 2.06254C5.56751 2.03206 5.78084 2.01582 5.99975 2.01582C8.59263 2.01582 10.2941 4.30395 10.866 5.20905C10.9351 5.31875 10.9697 5.3731 10.989 5.45792C11.0037 5.52141 11.0037 5.62147 10.989 5.68496C10.9697 5.76928 10.9346 5.82413 10.865 5.93486C10.7126 6.17561 10.4805 6.51439 10.1727 6.88161M3.32002 2.8869C2.22192 3.632 1.47631 4.66659 1.13449 5.20802C1.06491 5.31824 1.03035 5.37311 1.01105 5.45742C0.996318 5.52091 0.996318 5.62098 1.01105 5.68447C1.03035 5.76929 1.06489 5.82414 1.13396 5.93334C1.70587 6.83843 3.40687 9.12656 5.99975 9.12656C7.04554 9.12656 7.94606 8.75476 8.68609 8.25142M1.42856 1L10.5709 10.1424M4.92249 4.49393C4.64669 4.76972 4.47602 5.15064 4.47602 5.57119C4.47602 6.4128 5.15865 7.09492 5.99975 7.09492C6.42081 7.09492 6.80175 6.92425 7.07754 6.64845" stroke="black" stroke-width="1.2" stroke-linecap="round" stroke-linejoin="round"/>
</g>
</svg>
