<svg width="40" height="40" viewBox="0 0 40 40" fill="none" xmlns="http://www.w3.org/2000/svg">
<path fill-rule="evenodd" clip-rule="evenodd" d="M20.0033 5.91406C20.7949 5.91406 21.6242 6.02411 22.2969 6.26946L22.3032 6.27173L22.3031 6.27176L28.956 8.76489L28.9564 8.76506L28.9565 8.76508C29.8949 9.11614 30.7055 9.82593 31.2784 10.654C31.8514 11.4824 32.2299 12.4917 32.2299 13.494V23.4007C32.2299 24.3363 31.9261 25.3626 31.4716 26.2661C31.0171 27.1697 30.3736 28.0266 29.6223 28.5881C29.2905 28.8361 28.8205 28.7681 28.5725 28.4364C28.3246 28.1046 28.3925 27.6346 28.7243 27.3866C29.2397 27.0015 29.7495 26.3517 30.1316 25.592C30.5138 24.8321 30.7299 24.0384 30.7299 23.4007V13.494C30.7299 12.8564 30.4818 12.1391 30.0448 11.5074C29.6078 10.8757 29.0253 10.3922 28.4306 10.1699L28.4301 10.1697L21.783 7.67867L21.78 7.67759C21.3196 7.51027 20.6769 7.41406 20.0033 7.41406C19.7913 7.41406 19.5834 7.42359 19.3842 7.44177L20.0033 5.91406ZM19.3842 7.44177L20.0033 5.91406C19.2126 5.91406 18.3871 6.02386 17.7242 6.27147L17.7234 6.27176L11.0706 8.76489L11.0702 8.76506L11.0701 8.76508C10.1316 9.11614 9.32103 9.82593 8.74817 10.654C8.17513 11.4824 7.79663 12.4917 7.79663 13.494V23.4007C7.79663 24.3363 8.10053 25.3626 8.55496 26.2661C9.00952 27.1697 9.653 28.0266 10.4043 28.5881L10.4047 28.5884L16.136 32.8669L16.1373 32.8679C17.23 33.6888 18.6392 34.0774 20.0133 34.0774C21.3879 34.0774 22.7977 33.6885 23.8906 32.8669C24.2217 32.618 24.2883 32.1478 24.0394 31.8167C23.7905 31.4856 23.3204 31.419 22.9893 31.6679C22.2021 32.2596 21.1253 32.5774 20.0133 32.5774C18.9013 32.5774 17.8244 32.2596 17.0373 31.6679L17.0353 31.6664L11.3023 27.3866L19.3842 7.44177ZM19.3842 7.44177C18.9483 7.48157 18.5539 7.56283 18.2494 7.67651L18.249 7.67666L11.5965 10.1697L11.596 10.1699C11.0013 10.3922 10.4188 10.8757 9.98176 11.5074C9.54479 12.1391 9.29663 12.8564 9.29663 13.494V23.4007C9.29663 24.0384 9.51274 24.8321 9.89498 25.592C10.277 26.3515 10.7867 27.0012 11.302 27.3864L19.3842 7.44177ZM19.92 14.6172C19.0409 14.6172 18.3233 15.3347 18.3233 16.2139C18.3233 17.0777 19.0018 17.778 19.8398 17.8105H19.84H19.8403H19.8407H19.841H19.8413H19.8416H19.842H19.8423H19.8426H19.8429H19.8433H19.8436H19.8439H19.8443H19.8446H19.8449H19.8452H19.8456H19.8459H19.8462H19.8466H19.8469H19.8472H19.8475H19.8479H19.8482H19.8485H19.8489H19.8492H19.8495H19.8499H19.8502H19.8505H19.8509H19.8512H19.8515H19.8518H19.8522H19.8525H19.8528H19.8532H19.8535H19.8538H19.8542H19.8545H19.8549H19.8552H19.8555H19.8559H19.8562H19.8565H19.8569H19.8572H19.8575H19.8579H19.8582H19.8585H19.8589H19.8592H19.8596H19.8599H19.8602H19.8606H19.8609H19.8612H19.8616H19.8619H19.8623H19.8626H19.8629H19.8633H19.8636H19.864H19.8643H19.8646H19.865H19.8653H19.8657H19.866H19.8663H19.8667H19.867H19.8674H19.8677H19.868H19.8684H19.8687H19.8691H19.8694H19.8698H19.8701H19.8704H19.8708H19.8711H19.8715H19.8718H19.8721H19.8725H19.8728H19.8732H19.8735H19.8739H19.8742H19.8746H19.8749H19.8752H19.8756H19.8759H19.8763H19.8766H19.877H19.8773H19.8777H19.878H19.8784H19.8787H19.879H19.8794H19.8797H19.8801H19.8804H19.8808H19.8811H19.8815H19.8818H19.8822H19.8825H19.8829H19.8832H19.8835H19.8839H19.8842H19.8846H19.8849H19.8853H19.8856H19.886H19.8863H19.8867H19.887H19.8874H19.8877H19.8881H19.8884H19.8888H19.8891H19.8895H19.8898H19.8902H19.8905H19.8909H19.8912H19.8916H19.8919H19.8923H19.8926H19.893H19.8933H19.8937H19.894H19.8944H19.8947H19.8951H19.8954H19.8958H19.8961H19.8965H19.8968H19.8972H19.8975H19.8979H19.8982H19.8986H19.8989H19.8993H19.8996H19.9H19.9003H19.9007H19.901H19.9014H19.9017H19.9021H19.9024H19.9028H19.9031H19.9035H19.9038H19.9042H19.9045H19.9049H19.9052H19.9056H19.9059H19.9063H19.9066H19.907H19.9073H19.9077H19.908H19.9084H19.9087H19.9091H19.9094H19.9098H19.9101H19.9105H19.9108H19.9112H19.9116H19.9119H19.9123H19.9126H19.913H19.9133H19.9137H19.914H19.9144H19.9147H19.9151H19.9154H19.9158H19.9161H19.9165H19.9168H19.9172H19.9175H19.9179H19.9182H19.9186H19.9189H19.9193H19.9196H19.92H19.9203H19.9207H19.921H19.9214H19.9217H19.9221H19.9224H19.9228H19.9232H19.9235H19.9239H19.9242H19.9246H19.9249H19.9253H19.9256H19.926H19.9263H19.9267H19.927H19.9274H19.9277H19.9281H19.9284H19.9288H19.9291H19.9295H19.9298H19.9302H19.9305H19.9309H19.9312H19.9316H19.9319H19.9323H19.9326H19.933H19.9333H19.9337H19.934H19.9344H19.9347H19.9351H19.9354H19.9358H19.9361H19.9365H19.9368H19.9372H19.9375H19.9379H19.9382H19.9385H19.9389H19.9392H19.9396H19.9399H19.9403H19.9406H19.941H19.9413H19.9417H19.942H19.9424H19.9427H19.9431H19.9434H19.9438H19.9441H19.9445H19.9448H19.9452H19.9455H19.9458H19.9462H19.9465H19.9469H19.9472H19.9476H19.9479H19.9483H19.9486H19.949H19.9493H19.9497H19.95H19.9503H19.9507H19.951H19.9514H19.9517H19.9521H19.9524H19.9528H19.9531H19.9534H19.9538H19.9541H19.9545H19.9548H19.9552H19.9555H19.9558H19.9562H19.9565H19.9569H19.9572H19.9576H19.9579H19.9582H19.9586H19.9589H19.9593H19.9596H19.9599H19.9603H19.9606H19.961H19.9613H19.9616H19.962H19.9623H19.9627H19.963H19.9633H19.9637H19.964H19.9644H19.9647H19.965H19.9654H19.9657H19.9661H19.9664H19.9667H19.9671H19.9674H19.9677H19.9681H19.9684H19.9687H19.9691H19.9694H19.9698H19.9701H19.9704H19.9708H19.9711H19.9714H19.9718H19.9721H19.9724H19.9728H19.9731H19.9734H19.9738H19.9741H19.9744H19.9748H19.9751H19.9754H19.9758H19.9761H19.9764H19.9768H19.9771H19.9774H19.9778H19.9781H19.9784H19.9787H19.9791H19.9794H19.9797H19.9801H19.9804H19.9807H19.9811H19.9814H19.9817H19.982H19.9824H19.9827H19.983H19.9833H19.9837H19.984H19.9843H19.9846H19.985H19.9853H19.9856H19.986H19.9863H19.9866H19.9869C20.825 17.7781 21.5055 17.0899 21.5167 16.21C21.5145 15.3326 20.7978 14.6172 19.92 14.6172ZM16.8233 16.2139C16.8233 14.5063 18.2124 13.1172 19.92 13.1172C21.6275 13.1172 23.0167 14.5063 23.0167 16.2139V16.2217H23.0166C22.9992 17.8961 21.6862 19.2571 20.0239 19.3102C20.0159 19.3104 20.008 19.3105 20 19.3105H19.9997H19.9994H19.999H19.9987H19.9984H19.9981H19.9978H19.9975H19.9972H19.9968H19.9965H19.9962H19.9959H19.9956H19.9953H19.9949H19.9946H19.9943H19.994H19.9937H19.9934H19.993H19.9927H19.9924H19.9921H19.9918H19.9914H19.9911H19.9908H19.9905H19.9902H19.9898H19.9895H19.9892H19.9889H19.9885H19.9882H19.9879H19.9876H19.9872H19.9869H19.9866H19.9863H19.986H19.9856H19.9853H19.985H19.9846H19.9843H19.984H19.9837H19.9833H19.983H19.9827H19.9824H19.982H19.9817H19.9814H19.9811H19.9807H19.9804H19.9801H19.9797H19.9794H19.9791H19.9787H19.9784H19.9781H19.9778H19.9774H19.9771H19.9768H19.9764H19.9761H19.9758H19.9754H19.9751H19.9748H19.9744H19.9741H19.9738H19.9734H19.9731H19.9728H19.9724H19.9721H19.9718H19.9714H19.9711H19.9708H19.9704H19.9701H19.9698H19.9694H19.9691H19.9687H19.9684H19.9681H19.9677H19.9674H19.9671H19.9667H19.9664H19.9661H19.9657H19.9654H19.965H19.9647H19.9644H19.964H19.9637H19.9633H19.963H19.9627H19.9623H19.962H19.9616H19.9613H19.961H19.9606H19.9603H19.9599H19.9596H19.9593H19.9589H19.9586H19.9582H19.9579H19.9576H19.9572H19.9569H19.9565H19.9562H19.9558H19.9555H19.9552H19.9548H19.9545H19.9541H19.9538H19.9534H19.9531H19.9528H19.9524H19.9521H19.9517H19.9514H19.951H19.9507H19.9503H19.95H19.9497H19.9493H19.949H19.9486H19.9483H19.9479H19.9476H19.9472H19.9469H19.9465H19.9462H19.9458H19.9455H19.9452H19.9448H19.9445H19.9441H19.9438H19.9434H19.9431H19.9427H19.9424H19.942H19.9417H19.9413H19.941H19.9406H19.9403H19.9399H19.9396H19.9392H19.9389H19.9385H19.9382H19.9379H19.9375H19.9372H19.9368H19.9365H19.9361H19.9358H19.9354H19.9351H19.9347H19.9344H19.934H19.9337H19.9333H19.933H19.9326H19.9323H19.9319H19.9316H19.9312H19.9309H19.9305H19.9302H19.9298H19.9295H19.9291H19.9288H19.9284H19.9281H19.9277H19.9274H19.927H19.9267H19.9263H19.926H19.9256H19.9253H19.9249H19.9246H19.9242H19.9239H19.9235H19.9232H19.9228H19.9224H19.9221H19.9217H19.9214H19.921H19.9207H19.9203H19.92H19.9196H19.9193H19.9189H19.9186H19.9182H19.9179H19.9175H19.9172H19.9168H19.9165H19.9161H19.9158H19.9154H19.9151H19.9147H19.9144H19.914H19.9137H19.9133H19.913H19.9126H19.9123H19.9119H19.9116H19.9112H19.9108H19.9105H19.9101H19.9098H19.9094H19.9091H19.9087H19.9084H19.908H19.9077H19.9073H19.907H19.9066H19.9063H19.9059H19.9056H19.9052H19.9049H19.9045H19.9042H19.9038H19.9035H19.9031H19.9028H19.9024H19.9021H19.9017H19.9014H19.901H19.9007H19.9003H19.9H19.8996H19.8993H19.8989H19.8986H19.8982H19.8979H19.8975H19.8972H19.8968H19.8965H19.8961H19.8958H19.8954H19.8951H19.8947H19.8944H19.894H19.8937H19.8933H19.893H19.8926H19.8923H19.8919H19.8916H19.8912H19.8909H19.8905H19.8902H19.8898H19.8895H19.8891H19.8888H19.8884H19.8881H19.8877H19.8874H19.887H19.8867H19.8863H19.886H19.8856H19.8853H19.8849H19.8846H19.8842H19.8839H19.8835H19.8832H19.8829H19.8825H19.8822H19.8818H19.8815H19.8811H19.8808H19.8804H19.8801H19.8797H19.8794H19.879H19.8787H19.8784H19.878H19.8777H19.8773H19.877H19.8766H19.8763H19.8759H19.8756H19.8752H19.8749H19.8746H19.8742H19.8739H19.8735H19.8732H19.8728H19.8725H19.8721H19.8718H19.8715H19.8711H19.8708H19.8704H19.8701H19.8698H19.8694H19.8691H19.8687H19.8684H19.868H19.8677H19.8674H19.867H19.8667H19.8663H19.866H19.8657H19.8653H19.865H19.8646H19.8643H19.864H19.8636H19.8633H19.8629H19.8626H19.8623H19.8619H19.8616H19.8612H19.8609H19.8606H19.8602H19.8599H19.8596H19.8592H19.8589H19.8585H19.8582H19.8579H19.8575H19.8572H19.8569H19.8565H19.8562H19.8559H19.8555H19.8552H19.8549H19.8545H19.8542H19.8538H19.8535H19.8532H19.8528H19.8525H19.8522H19.8518H19.8515H19.8512H19.8509H19.8505H19.8502H19.8499H19.8495H19.8492H19.8489H19.8485H19.8482H19.8479H19.8475H19.8472H19.8469H19.8466H19.8462H19.8459H19.8456H19.8452H19.8449H19.8446H19.8443H19.8439H19.8436H19.8433H19.8429H19.8426H19.8423H19.842H19.8416H19.8413H19.841H19.8407H19.8403H19.84H19.8397H19.8394H19.839H19.8387H19.8384H19.8381H19.8378H19.8374H19.8371H19.8368H19.8365H19.8361H19.8358H19.8355H19.8352H19.8349H19.8345H19.8342H19.8339H19.8336H19.8333H19.8329H19.8326H19.8323H19.832H19.8317H19.8314H19.831H19.8307H19.8304H19.8301H19.8298H19.8295H19.8291H19.8288H19.8285H19.8282H19.8279H19.8276H19.8273H19.827H19.8266C19.8187 19.3105 19.8107 19.3104 19.8027 19.3102C18.139 19.2571 16.8233 17.8797 16.8233 16.2139ZM24.3501 23.8478C24.3501 22.9778 23.8537 22.2028 23.0581 21.6717C22.1876 21.0841 21.0763 20.8145 20.0034 20.8145C18.9291 20.8145 17.8134 21.0847 16.9321 21.6695L16.9308 21.6704C16.134 22.2016 15.6368 22.9771 15.6368 23.8478C15.6368 24.718 16.1335 25.4931 16.9294 26.0243C17.8055 26.611 18.9194 26.8811 19.9934 26.8811C21.0672 26.8811 22.1809 26.6111 23.0568 26.0247C23.8531 25.4936 24.3501 24.7182 24.3501 23.8478ZM17.1368 23.8478C17.1368 23.5919 17.2794 23.241 17.7622 22.9189C18.3475 22.5307 19.1581 22.3145 20.0034 22.3145C20.8497 22.3145 21.6509 22.5311 22.2201 22.9158L22.2201 22.9158L22.2241 22.9185C22.7074 23.2407 22.8501 23.5918 22.8501 23.8478C22.8501 24.1038 22.7074 24.4549 22.2241 24.7771L22.2228 24.7779C21.6455 25.1646 20.8394 25.3811 19.9934 25.3811C19.1475 25.3811 18.3414 25.1646 17.7641 24.7779L17.7628 24.7771C17.2795 24.4549 17.1368 24.1038 17.1368 23.8478Z" fill="white"/>
</svg>
