<svg width="32" height="32" viewBox="0 0 32 32" fill="none" xmlns="http://www.w3.org/2000/svg">
<path d="M22.04 17.5051C21.62 17.9151 21.38 18.5051 21.44 19.1351C21.53 20.2151 22.52 21.0051 23.6 21.0051H25.5V22.1951C25.5 24.2651 23.81 25.9551 21.74 25.9551H11.63C11.94 25.6951 12.21 25.3751 12.42 25.0151C12.79 24.4151 13 23.7051 13 22.9551C13 20.7451 11.21 18.9551 9 18.9551C8.06 18.9551 7.19 19.2851 6.5 19.8351V15.4651C6.5 13.3951 8.19 11.7051 10.26 11.7051H21.74C23.81 11.7051 25.5 13.3951 25.5 15.4651V16.9051H23.48C22.92 16.9051 22.41 17.1251 22.04 17.5051Z" stroke="white" stroke-width="1.5" stroke-linecap="round" stroke-linejoin="round"/>
<path d="M6.5 16.3644V11.7944C6.5 10.6044 7.23 9.54441 8.34 9.12441L16.28 6.12441C17.52 5.65441 18.85 6.57444 18.85 7.90444V11.7044" stroke="white" stroke-width="1.5" stroke-linecap="round" stroke-linejoin="round"/>
<path d="M26.5588 17.9223V19.9824C26.5588 20.5324 26.1188 20.9823 25.5588 21.0023H23.5988C22.5188 21.0023 21.5288 20.2123 21.4388 19.1323C21.3788 18.5023 21.6188 17.9123 22.0388 17.5023C22.4088 17.1223 22.9188 16.9023 23.4788 16.9023H25.5588C26.1188 16.9223 26.5588 17.3723 26.5588 17.9223Z" stroke="white" stroke-width="1.5" stroke-linecap="round" stroke-linejoin="round"/>
<path d="M11 15.9531H18" stroke="white" stroke-width="1.5" stroke-linecap="round" stroke-linejoin="round"/>
<path d="M13 22.9531C13 23.7031 12.79 24.4131 12.42 25.0131C12.21 25.3731 11.94 25.6931 11.63 25.9531C10.93 26.5831 10.01 26.9531 9 26.9531C7.54 26.9531 6.27 26.1731 5.58 25.0131C5.21 24.4131 5 23.7031 5 22.9531C5 21.6931 5.58 20.5631 6.5 19.8331C7.19 19.2831 8.06 18.9531 9 18.9531C11.21 18.9531 13 20.7431 13 22.9531Z" stroke="white" stroke-width="1.5" stroke-miterlimit="10" stroke-linecap="round" stroke-linejoin="round"/>
<path d="M10.4917 22.9336H7.51172" stroke="white" stroke-width="1.5" stroke-miterlimit="10" stroke-linecap="round" stroke-linejoin="round"/>
<path d="M9 21.4727V24.4626" stroke="white" stroke-width="1.5" stroke-miterlimit="10" stroke-linecap="round" stroke-linejoin="round"/>
</svg>
