<svg width="32" height="32" viewBox="0 0 32 32" fill="none" xmlns="http://www.w3.org/2000/svg">
<path d="M15.5901 16C18.3515 16 20.5901 13.7614 20.5901 11C20.5901 8.23858 18.3515 6 15.5901 6C12.8287 6 10.5901 8.23858 10.5901 11C10.5901 13.7614 12.8287 16 15.5901 16Z" stroke="white" stroke-width="1.5" stroke-linecap="round" stroke-linejoin="round"/>
<path d="M7 26C7 22.13 10.85 19 15.59 19C16.55 19 17.48 19.13 18.35 19.37" stroke="white" stroke-width="1.5" stroke-linecap="round" stroke-linejoin="round"/>
<path d="M25.5901 22C25.5901 22.32 25.5501 22.63 25.4701 22.93C25.3801 23.33 25.2201 23.72 25.0101 24.06C24.3201 25.22 23.0501 26 21.5901 26C20.5601 26 19.6301 25.61 18.9301 24.97C18.6301 24.71 18.3701 24.4 18.1701 24.06C17.8001 23.46 17.5901 22.75 17.5901 22C17.5901 20.92 18.0201 19.93 18.7201 19.21C19.4501 18.46 20.4701 18 21.5901 18C22.7701 18 23.8401 18.51 24.5601 19.33C25.2001 20.04 25.5901 20.98 25.5901 22Z" stroke="white" stroke-width="1.5" stroke-miterlimit="10" stroke-linecap="round" stroke-linejoin="round"/>
<path d="M23.0801 21.9805H20.1001" stroke="white" stroke-width="1.5" stroke-miterlimit="10" stroke-linecap="round" stroke-linejoin="round"/>
<path d="M21.5901 20.5195V23.5095" stroke="white" stroke-width="1.5" stroke-miterlimit="10" stroke-linecap="round" stroke-linejoin="round"/>
</svg>
