<svg width="24" height="24" viewBox="0 0 24 24" fill="none" xmlns="http://www.w3.org/2000/svg">
<path d="M13 11.2H8.2M9.8 14.4H8.2M14.6 8H8.2M17.8 10.4V7.84004C17.8 6.49604 17.7999 5.82391 17.5359 5.31191C17.3119 4.85591 16.9441 4.48806 16.4881 4.26406C15.9761 4.00006 15.304 4 13.96 4H8.84004C7.49604 4 6.82391 4.00006 6.31191 4.26406C5.85591 4.48806 5.48806 4.85591 5.26406 5.31191C5.00006 5.82391 5 6.49604 5 7.84004V16.16C5 17.504 5.00006 18.1761 5.26406 18.6881C5.48806 19.1441 5.85591 19.5119 6.31191 19.7359C6.82391 19.9999 7.49604 20 8.84004 20H11.8M16.2 19.2C16.2 19.2 18.6 18.0559 18.6 16.3439V14.3359L16.848 13.7119C16.432 13.5599 15.968 13.5599 15.552 13.7119L13.8 14.3359V16.3439C13.8 18.0559 16.2 19.2 16.2 19.2Z" stroke="white" stroke-width="1.5" stroke-linecap="round" stroke-linejoin="round"/>
</svg>
