<svg width="18" height="20" viewBox="0 0 18 20" fill="none" xmlns="http://www.w3.org/2000/svg">
<path fill-rule="evenodd" clip-rule="evenodd" d="M17.7982 3.22893C17.7982 1.87974 17.3661 0.877905 16.4779 0.35873C15.6488 -0.125883 14.645 -0.0493006 13.8102 0.178334L13.81 0.178388L8.07173 1.74169L8.07156 1.74174L8.07138 1.74179C6.70968 2.11222 5.73854 3.22804 5.73854 4.79239V6.78809V7.73569C5.73828 7.7471 5.73828 7.75854 5.73854 7.77001V8.13083V13.3894C5.14529 12.9695 4.42079 12.7227 3.63865 12.7227C1.62908 12.7227 0 14.3518 0 16.3613C0 18.3709 1.62908 20 3.63865 20C5.64823 20 7.27731 18.3709 7.27731 16.3613L7.27705 16.3172V8.34086L16.2597 5.89105V11.4763C15.6664 11.0564 14.9419 10.8096 14.1597 10.8096C12.1502 10.8096 10.5211 12.4386 10.5211 14.4482C10.5211 16.4578 12.1502 18.0869 14.1597 18.0869C16.1693 18.0869 17.7984 16.4578 17.7984 14.4482L17.7982 14.409V4.90146C17.7984 4.89009 17.7984 4.87869 17.7982 4.86726V3.22893ZM16.2597 4.29635V3.22893C16.2597 2.18695 15.9422 1.82767 15.7015 1.68697C15.4017 1.51175 14.8974 1.47651 14.2148 1.66268L14.2146 1.66274L8.47578 3.2262L8.47543 3.22629C7.74044 3.42616 7.27705 3.9657 7.27705 4.79239V6.74616L16.2597 4.29635ZM14.1597 12.3481C15.3096 12.3481 16.2437 13.2722 16.2597 14.4183V14.449L16.2598 14.4643C16.2512 15.6168 15.3143 16.5484 14.1597 16.5484C12.9999 16.5484 12.0596 15.6081 12.0596 14.4482C12.0596 13.2883 12.9999 12.3481 14.1597 12.3481ZM5.73854 16.3278V16.3528L5.73878 16.372C5.73303 17.527 4.79498 18.4615 3.63865 18.4615C2.47878 18.4615 1.53851 17.5212 1.53851 16.3613C1.53851 15.2015 2.47877 14.2612 3.63865 14.2612C4.78734 14.2612 5.72063 15.1834 5.73854 16.3278Z" fill="white"/>
</svg>
