<svg width="80" height="80" viewBox="0 0 80 80" fill="none" xmlns="http://www.w3.org/2000/svg">
<g filter="url(#filter0_d_0_2166)">
<g clip-path="url(#clip0_0_2166)">
<rect x="16" y="12" width="48" height="48" rx="24" fill="#292929"/>
<path d="M40 13.7C40 13.0373 40.5377 12.4969 41.1996 12.53C46.3238 12.7863 51.2432 14.6796 55.2254 17.9478C59.5176 21.4702 62.4556 26.372 63.5388 31.8178C64.6221 37.2637 63.7836 42.9166 61.1661 47.8135C58.5487 52.7104 54.3143 56.5483 49.1844 58.6731C44.0545 60.798 38.3466 61.0784 33.0332 59.4666C27.7197 57.8548 23.1295 54.4504 20.0447 49.8337C16.9599 45.2169 15.5713 39.6734 16.1156 34.1476C16.6205 29.0207 18.7603 24.2035 22.2024 20.3989C22.647 19.9074 23.4093 19.9093 23.878 20.378C24.3466 20.8466 24.3438 21.6043 23.9019 22.0982C20.851 25.5083 18.9545 29.8087 18.504 34.3828C18.0142 39.356 19.2639 44.3452 22.0403 48.5003C24.8166 52.6554 28.9478 55.7193 33.7298 57.1699C38.5119 58.6205 43.6491 58.3682 48.266 56.4558C52.8828 54.5434 56.6938 51.0894 59.0495 46.6822C61.4052 42.275 62.1599 37.1873 61.185 32.2861C60.21 27.3848 57.5658 22.9732 53.7029 19.803C50.1499 16.8871 45.7681 15.1873 41.1995 14.9333C40.5378 14.8965 40 14.3627 40 13.7Z" fill="#FAB20B"/>
<path d="M39.1338 38.5419V37.1936C36.8329 37.0215 34.6787 35.9927 33.0981 34.3087C31.496 32.6019 30.603 30.3497 30.6002 28.0088L30.6002 28.0086C30.6002 27.8286 30.6717 27.6559 30.7991 27.5285C30.9264 27.4012 31.0991 27.3297 31.2791 27.3297C31.4592 27.3297 31.6319 27.4012 31.7592 27.5285C31.8865 27.6559 31.9581 27.8285 31.9581 28.0086M39.1338 38.5419L41.2578 38.5431M39.1338 38.5419C38.8858 38.4723 38.6288 38.439 38.3707 38.4431L38.3706 38.4431C38.0156 38.4495 37.6657 38.5277 37.3417 38.6729C37.0178 38.8181 36.7266 39.0273 36.4857 39.2881L36.4847 39.2891C36.023 39.8028 35.776 40.4742 35.7948 41.1647C35.8136 41.8551 36.0967 42.512 36.5857 42.9999M39.1338 38.5419L36.5857 43M31.9581 28.0086C31.9581 28.0086 31.9581 28.0086 31.9581 28.0086H31.8581M31.9581 28.0086C31.9581 28.0085 31.9581 28.0085 31.9581 28.0085L31.8581 28.0086M31.9581 28.0086C31.9608 29.9918 32.7127 31.9008 34.0633 33.3532C35.3894 34.7792 37.1965 35.6616 39.1338 35.8317V35.2223C39.1338 35.0422 39.2054 34.8695 39.3327 34.7422C39.46 34.6149 39.6327 34.5433 39.8128 34.5433C39.9928 34.5433 40.1655 34.6149 40.2929 34.7422C40.4202 34.8695 40.4917 35.0422 40.4917 35.2223V35.8317C42.4291 35.6616 44.2362 34.7792 45.5623 33.3532C46.9129 31.9008 47.6648 29.9918 47.6675 28.0085C47.6675 27.8285 47.739 27.6558 47.8663 27.5285C47.9936 27.4012 48.1663 27.3297 48.3464 27.3297C48.5265 27.3297 48.6992 27.4012 48.8265 27.5285C48.9538 27.6559 49.0253 27.8286 49.0253 28.0086V28.0088C49.022 30.3487 48.1295 32.6 46.5285 34.3066C44.949 35.9904 42.7962 37.0198 40.4963 37.1936V38.5394C40.7444 38.4697 41.0016 38.4372 41.2597 38.4431M31.8581 28.0086C31.8581 27.8551 31.7971 27.7078 31.6885 27.5993C31.5799 27.4907 31.4327 27.4297 31.2791 27.4297C31.1256 27.4297 30.9783 27.4907 30.8698 27.5993C30.7612 27.7078 30.7002 27.8551 30.7002 28.0086C30.703 30.3241 31.5863 32.5519 33.171 34.2403C34.7557 35.9286 36.9231 36.951 39.2338 37.1004L31.8581 28.0086ZM41.2597 38.4431C41.2598 38.4431 41.26 38.4431 41.2601 38.4431L41.2578 38.5431M41.2597 38.4431C41.2595 38.4431 41.2594 38.4431 41.2592 38.4431L41.2578 38.5431M41.2597 38.4431C41.6161 38.4483 41.9677 38.5258 42.2933 38.671C42.619 38.8162 42.9117 39.0262 43.1538 39.288L43.1547 39.2891L43.1547 39.2891C43.6165 39.8028 43.8634 40.4742 43.8446 41.1647C43.8258 41.8551 43.5427 42.512 43.0538 42.9999M41.2578 38.5431C41.6008 38.548 41.9393 38.6226 42.2526 38.7623C42.5659 38.902 42.8475 39.104 43.0803 39.3559C43.525 39.8506 43.7628 40.4971 43.7447 41.162C43.7266 41.8268 43.4539 42.4594 42.9831 42.9292M43.0538 42.9999L42.9831 42.9292M43.0538 42.9999C43.0537 42.9999 43.0537 42.9999 43.0537 43L41.0205 45.0331L41.0204 45.0332C40.7017 45.3511 40.2699 45.5297 39.8197 45.5297C39.3695 45.5297 38.9377 45.3511 38.619 45.0332L38.6189 45.0331L36.5857 43M43.0538 42.9999L36.5857 43M42.9831 42.9292L40.9498 44.9624M42.9831 42.9292L40.9498 44.9624M40.9498 44.9624C40.6498 45.2616 40.2434 45.4297 39.8197 45.4297C39.396 45.4297 38.9896 45.2616 38.6896 44.9624L36.6564 42.9292M40.9498 44.9624L38.3724 38.5431C38.0309 38.5492 37.6942 38.6244 37.3826 38.7641C37.071 38.9038 36.7909 39.1051 36.5591 39.3559C36.1145 39.8506 35.8767 40.4971 35.8948 41.162C35.9129 41.8268 36.1855 42.4594 36.6564 42.9292M36.6564 42.9292L36.5857 43M36.6564 42.9292L36.5857 42.9999M36.5857 43L36.5857 42.9999M36.5857 43L36.5857 42.9999M41.2307 39.8033L41.1454 39.8019C40.9998 39.8082 40.8562 39.8392 40.7207 39.8936C40.5589 39.9586 40.412 40.0558 40.2888 40.1792L40.2885 40.1795C40.2569 40.2108 40.2224 40.239 40.1854 40.2636L40.1787 40.268L40.1786 40.2678L40.1369 40.2909L40.1345 40.2923L40.1345 40.2922L40.0766 40.3223L40.0679 40.3269L40.0584 40.3296L40.004 40.3455L40.0029 40.3458L39.9507 40.3617L39.9408 40.3647L39.9304 40.3656C39.8922 40.369 39.8537 40.3691 39.8155 40.366H39.8008C39.7625 40.3691 39.7241 40.369 39.6859 40.3656L39.6755 40.3647L39.6655 40.3617L39.6134 40.3458L39.6123 40.3455L39.5578 40.3296L39.5484 40.3269L39.5397 40.3223L39.4818 40.2922L39.4814 40.292L39.4374 40.2688L39.4283 40.2641L39.4286 40.2636C39.3915 40.239 39.357 40.2108 39.3254 40.1795L39.3252 40.1792C39.2053 40.0592 39.0629 39.964 38.9062 39.8991C38.7494 39.8342 38.5814 39.8008 38.4118 39.801H38.4117H38.3963C38.2227 39.804 38.0515 39.842 37.8929 39.9128C37.7345 39.9836 37.592 40.0856 37.4739 40.2127C37.2489 40.4677 37.1301 40.7991 37.1421 41.139C37.1542 41.4792 37.2963 41.8018 37.5393 42.0403L37.5399 42.041L39.5729 44.0739L41.2307 39.8033ZM41.2307 39.8033C41.4046 39.8062 41.5761 39.8442 41.7349 39.9151C41.8934 39.9859 42.0359 40.0879 42.154 40.215C42.379 40.47 42.4977 40.8015 42.4857 41.1413C42.4737 41.4815 42.3315 41.8042 42.0886 42.0426L42.088 42.0433M41.2307 39.8033L42.088 42.0433M42.088 42.0433L40.055 44.0739M42.088 42.0433L40.055 44.0739M40.055 44.0739C40.0549 44.074 40.0549 44.074 40.0549 44.074M40.055 44.0739L40.0549 44.074M40.0549 44.074C39.9908 44.1376 39.9042 44.1732 39.8139 44.1732C39.7238 44.1732 39.6372 44.1376 39.5732 44.0742L40.0549 44.074ZM40.4963 38.6435C40.4628 38.6533 40.4295 38.6638 40.3963 38.6751V38.5697L40.4963 38.6435ZM39.3959 40.1086C39.4228 40.1353 39.4523 40.1593 39.4839 40.1803L39.3959 40.1086Z" fill="white" stroke="white" stroke-width="0.2"/>
</g>
</g>
<defs>
<filter id="filter0_d_0_2166" x="0" y="0" width="80" height="80" filterUnits="userSpaceOnUse" color-interpolation-filters="sRGB">
<feFlood flood-opacity="0" result="BackgroundImageFix"/>
<feColorMatrix in="SourceAlpha" type="matrix" values="0 0 0 0 0 0 0 0 0 0 0 0 0 0 0 0 0 0 127 0" result="hardAlpha"/>
<feOffset dy="4"/>
<feGaussianBlur stdDeviation="8"/>
<feComposite in2="hardAlpha" operator="out"/>
<feColorMatrix type="matrix" values="0 0 0 0 0 0 0 0 0 0 0 0 0 0 0 0 0 0 0.4 0"/>
<feBlend mode="normal" in2="BackgroundImageFix" result="effect1_dropShadow_0_2166"/>
<feBlend mode="normal" in="SourceGraphic" in2="effect1_dropShadow_0_2166" result="shape"/>
</filter>
<clipPath id="clip0_0_2166">
<rect x="16" y="12" width="48" height="48" rx="24" fill="white"/>
</clipPath>
</defs>
</svg>
