<svg width="22" height="21" viewBox="0 0 22 21" fill="none" xmlns="http://www.w3.org/2000/svg">
<path d="M8.95349 13.2684C8.53395 13.2684 8.18605 13.6163 8.18605 14.0358V15.5707C8.18605 15.9902 8.53395 16.3381 8.95349 16.3381C9.37302 16.3381 9.72093 15.9902 9.72093 15.5707V14.0358C9.72093 13.6163 9.37302 13.2684 8.95349 13.2684Z" fill="#FAB20B"/>
<path d="M21.2326 19.1528H20.2093V7.6207C20.2093 6.98628 19.9228 6.39279 19.4214 6.00395L12.2586 0.437442C11.5219 -0.145814 10.4781 -0.145814 9.7414 0.437442L2.5786 6.00395C2.07721 6.39279 1.7907 6.98628 1.7907 7.61047L1.73953 19.1528H0.767442C0.347907 19.1528 0 19.4905 0 19.9202C0 20.3398 0.347907 20.6877 0.767442 20.6877H21.2326C21.6521 20.6877 22 20.3398 22 19.9202C22 19.4905 21.6521 19.1528 21.2326 19.1528ZM9.46512 4.31558H12.5349C12.9544 4.31558 13.3023 4.66349 13.3023 5.08302C13.3023 5.50256 12.9544 5.85046 12.5349 5.85046H9.46512C9.04558 5.85046 8.69767 5.50256 8.69767 5.08302C8.69767 4.66349 9.04558 4.31558 9.46512 4.31558ZM16.1163 19.1528H5.88372V10.1993C5.88372 9.35 6.5693 8.66442 7.4186 8.66442H14.5814C15.4307 8.66442 16.1163 9.35 16.1163 10.1993V19.1528Z" fill="#FAB20B"/>
</svg>
