<svg width="24" height="24" viewBox="0 0 24 24" fill="none" xmlns="http://www.w3.org/2000/svg">
<path d="M16.6496 18.4441C17.3796 17.3511 17.8296 16.0981 17.9596 14.7981C17.9896 14.5481 17.9996 14.4221 17.9496 14.3041C17.9096 14.2071 17.8197 14.1121 17.7297 14.0611C17.6197 14.0001 17.4796 14.0001 17.1996 14.0001H10.7997C10.5197 14.0001 10.3797 14.0001 10.2697 13.9451C10.1797 13.8971 10.0997 13.8211 10.0497 13.7271C9.99973 13.6201 9.99968 13.4801 9.99968 13.2001V6.80006C9.99968 6.52306 9.99962 6.38408 9.93962 6.27208C9.88962 6.17908 9.78963 6.09307 9.69963 6.05207C9.57963 6.00207 9.44963 6.01408 9.19963 6.04008C7.89963 6.17008 6.64974 6.61806 5.55974 7.34806C4.23974 8.22706 3.20978 9.47606 2.60978 10.9381C1.99978 12.4001 1.84958 14.0091 2.14958 15.5601C2.45958 17.1121 3.21976 18.5381 4.33976 19.6571C5.45976 20.7751 6.88962 21.5371 8.43962 21.8461C9.98962 22.1551 11.5997 21.9961 13.0597 21.3911" stroke="#BABABA" stroke-width="1.5" stroke-linecap="round" stroke-linejoin="round"/>
<path d="M14 2.80006C14 2.52306 14.0001 2.38408 14.0601 2.27208C14.1101 2.17908 14.21 2.09307 14.3 2.05207C14.42 2.00207 14.55 2.01408 14.8 2.04008C16.63 2.22308 18.3499 3.03206 19.6599 4.34306C20.9699 5.65406 21.78 7.37306 21.96 9.20106C21.99 9.45206 22 9.57708 21.95 9.69508C21.91 9.79208 21.82 9.88706 21.73 9.93806C21.62 10.0001 21.48 10.0001 21.2 10.0001H14.8C14.52 10.0001 14.38 10.0001 14.27 9.94508C14.18 9.89708 14.1 9.82106 14.05 9.72706C14 9.62006 14 9.48009 14 9.20009V2.80006Z" stroke="#BABABA" stroke-width="1.5" stroke-linecap="round" stroke-linejoin="round"/>
</svg>
