<svg width="32" height="32" viewBox="0 0 32 32" fill="none" xmlns="http://www.w3.org/2000/svg">
<path d="M15.7999 11.2V4L13.3999 6.4" stroke="white" stroke-width="1.5" stroke-linecap="round" stroke-linejoin="round"/>
<path d="M15.8 4L18.2 6.4" stroke="white" stroke-width="1.5" stroke-linecap="round" stroke-linejoin="round"/>
<path d="M9.8 16C5 16 5 18.148 5 20.8V22C5 25.312 5 28 11 28H20.6C25.4 28 26.6 25.312 26.6 22V20.8C26.6 18.148 26.6 16 21.8 16C20.6 16 20.264 16.252 19.64 16.72L18.416 18.016C17 19.528 14.6 19.528 13.172 18.016L11.96 16.72C11.336 16.252 11 16 9.8 16Z" stroke="white" stroke-width="1.5" stroke-miterlimit="10" stroke-linecap="round" stroke-linejoin="round"/>
<path d="M7.3999 15.9997V13.5997C7.3999 11.1877 7.3999 9.19566 10.9999 8.84766" stroke="white" stroke-width="1.5" stroke-miterlimit="10" stroke-linecap="round" stroke-linejoin="round"/>
<path d="M24.2001 15.9997V13.5997C24.2001 11.1877 24.2001 9.19566 20.6001 8.84766" stroke="white" stroke-width="1.5" stroke-miterlimit="10" stroke-linecap="round" stroke-linejoin="round"/>
</svg>
