<svg width="24" height="24" viewBox="0 0 24 24" fill="none" xmlns="http://www.w3.org/2000/svg">
<path d="M18.25 20.25C18.25 20.6647 17.914 21 17.5 21C17.086 21 16.75 20.6647 16.75 20.25C16.75 18.5955 15.4045 17.25 13.75 17.25H9.25C7.5955 17.25 6.25 18.5955 6.25 20.25C6.25 20.6647 5.914 21 5.5 21C5.086 21 4.75 20.6647 4.75 20.25C4.75 17.7682 6.76825 15.75 9.25 15.75H13.75C16.2318 15.75 18.25 17.7682 18.25 20.25ZM19 8.625V10.125C19 10.7453 18.4953 11.25 17.875 11.25H17.5C17.5 12.9045 16.1545 14.25 14.5 14.25H8.5C6.8455 14.25 5.5 12.9045 5.5 11.25H5.125C4.50475 11.25 4 10.7453 4 10.125V8.625C4 8.00475 4.50475 7.5 5.125 7.5H5.5C5.5 5.8455 6.8455 4.5 8.5 4.5H10.75V3.75C10.75 3.33525 11.086 3 11.5 3C11.914 3 12.25 3.33525 12.25 3.75V4.5H14.5C16.1545 4.5 17.5 5.8455 17.5 7.5H17.875C18.4953 7.5 19 8.00475 19 8.625ZM16 7.5C16 6.67275 15.3273 6 14.5 6H8.5C7.67275 6 7 6.67275 7 7.5V11.25C7 12.0773 7.67275 12.75 8.5 12.75H14.5C15.3273 12.75 16 12.0773 16 11.25V7.5ZM9.625 8.25C9.004 8.25 8.5 8.754 8.5 9.375C8.5 9.996 9.004 10.5 9.625 10.5C10.246 10.5 10.75 9.996 10.75 9.375C10.75 8.754 10.246 8.25 9.625 8.25ZM13.375 8.25C12.754 8.25 12.25 8.754 12.25 9.375C12.25 9.996 12.754 10.5 13.375 10.5C13.996 10.5 14.5 9.996 14.5 9.375C14.5 8.754 13.996 8.25 13.375 8.25Z" fill="white"/>
</svg>
