<svg width="40" height="40" viewBox="0 0 40 40" fill="none" xmlns="http://www.w3.org/2000/svg">
<path fill-rule="evenodd" clip-rule="evenodd" d="M12.0001 7.41602C9.46763 7.41602 7.41675 9.4669 7.41675 11.9993C7.41675 12.4136 7.08096 12.7493 6.66675 12.7493C6.25253 12.7493 5.91675 12.4136 5.91675 11.9993C5.91675 8.63847 8.6392 5.91602 12.0001 5.91602H24.0001C24.4143 5.91602 24.7501 6.2518 24.7501 6.66602V9.91602H26.4534C27.6873 9.91602 28.8111 10.584 29.422 11.6361L29.4245 11.6403L29.4244 11.6404L31.7045 15.627C31.7084 15.6339 31.7122 15.6408 31.7159 15.6477L33.985 19.6286C34.0495 19.7418 34.0834 19.8698 34.0834 20V22.6609C34.0834 22.6626 34.0834 22.6643 34.0834 22.666V26.666C34.0834 27.0802 33.7476 27.416 33.3334 27.416C32.9192 27.416 32.5834 27.0802 32.5834 26.666V23.4167H29.3334C28.1858 23.4167 27.2501 22.4809 27.2501 21.3333V17.3333C27.2501 17.3242 27.2501 17.315 27.2503 17.3058C27.2504 17.2969 27.2505 17.288 27.2508 17.279C27.2794 16.1561 28.2038 15.2493 29.3334 15.2493H29.7605L28.1248 12.3893L28.1237 12.3875C27.7744 11.7873 27.1389 11.416 26.4534 11.416H24.7501L24.7501 19.9993C24.7501 21.8802 23.2143 23.416 21.3334 23.416H7.41675V26.666C7.41675 28.4651 8.86763 29.916 10.6667 29.916H11.3328C11.6237 28.6185 12.6527 27.5998 13.9558 27.3241C14.1853 27.2751 14.4231 27.2493 14.6667 27.2493C14.912 27.2493 15.1513 27.2755 15.3821 27.325C16.6832 27.6022 17.7101 28.62 18.0007 29.916H21.9995C22.2902 28.6191 23.3183 27.6009 24.6205 27.3245C24.8506 27.2753 25.0891 27.2493 25.3334 27.2493C25.5777 27.2493 25.8162 27.2753 26.0462 27.3245C27.3485 27.6008 28.3766 28.6191 28.6674 29.916H29.3334C29.7476 29.916 30.0834 30.2518 30.0834 30.666C30.0834 31.0802 29.7476 31.416 29.3334 31.416H28.6677C28.3261 32.9425 26.963 34.0833 25.3334 34.0833C23.7039 34.0833 22.3408 32.9425 21.9992 31.416H18.001C17.6594 32.9425 16.2963 34.0833 14.6667 34.0833C13.0372 34.0833 11.6741 32.9425 11.3325 31.416H10.6667C8.0392 31.416 5.91675 29.2936 5.91675 26.666V22.666V18.6527C5.91675 18.2385 6.25253 17.9027 6.66675 17.9027C7.08096 17.9027 7.41675 18.2385 7.41675 18.6527V21.916H21.3334C22.3859 21.916 23.2501 21.0518 23.2501 19.9993L23.2501 10.666L23.2501 10.6643V7.41602H12.0001ZM32.5834 21.916V20.1987L30.6176 16.75H29.3334C29.0206 16.75 28.7606 17.0038 28.7504 17.3144C28.7502 17.3205 28.7501 17.3266 28.7501 17.3327V21.3327C28.7501 21.6518 29.0143 21.916 29.3334 21.916H32.5834ZM27.2501 30.6667C27.2501 29.745 26.5996 28.9753 25.7326 28.7916C25.6039 28.7644 25.4703 28.75 25.3334 28.75C25.1965 28.75 25.0629 28.7644 24.9342 28.7916C24.0932 28.9723 23.4506 29.7109 23.418 30.5955C23.4172 30.6191 23.4167 30.6428 23.4167 30.6667C23.4167 31.7252 24.2749 32.5833 25.3334 32.5833C26.392 32.5833 27.2501 31.7252 27.2501 30.6667ZM12.7501 30.6719C12.7529 31.728 13.6099 32.5833 14.6667 32.5833C15.7253 32.5833 16.5834 31.7252 16.5834 30.6667C16.5834 30.6284 16.5823 30.5904 16.5801 30.5527C16.5288 29.6876 15.8941 28.9702 15.0674 28.7919C14.9382 28.7645 14.8041 28.75 14.6667 28.75C14.5303 28.75 14.3973 28.7642 14.2689 28.7913C13.405 28.9763 12.7501 29.7498 12.7501 30.666L12.7501 30.6719Z" fill="white"/>
</svg>
