<svg width="34" height="34" viewBox="0 0 34 34" fill="none" xmlns="http://www.w3.org/2000/svg">
<path d="M5.29395 18.6231L5.29405 18.6232C5.23868 18.6812 5.18123 18.7405 5.12243 18.8011C4.47985 19.464 3.67706 20.292 3.68171 21.5285M5.29395 18.6231L14.943 33.086C14.7774 33.1671 14.6096 33.2367 14.4382 33.2944M5.29395 18.6231L5.30255 18.6145L14.8603 9.0636L12.6308 6.8331L3.70872 15.7483L5.29395 18.6231ZM3.68171 21.5285C3.68171 21.5289 3.68171 21.5293 3.68171 21.5296L4.18612 21.5275H3.68171V21.5285ZM3.68171 21.5285V29.8358V30.3402H4.18612H11.4889M11.4889 30.3402L11.3411 30.1922L11.6981 29.8358V30.3402H11.4889ZM11.4889 30.3402L14.4382 33.2944M14.4382 33.2944L14.8306 33.6874L3.70842 15.7486C1.51834 17.9407 0.526573 18.9567 0.526573 20.8293V30.3713C0.526573 31.5178 0.807184 32.2713 1.28376 32.7434C1.76126 33.2163 2.52497 33.4954 3.68597 33.4954H13.1933C13.6365 33.4954 14.0465 33.4262 14.4382 33.2944Z" stroke="url(#paint0_linear_1_1034)"/>
<path d="M21.5265 29.8128C20.4242 29.8155 19.7161 29.0525 18.9708 28.3392L9.06271 18.4259L6.11938 21.3666L15.3933 30.6471C17.5482 32.7993 18.71 33.9761 20.8282 33.9761H30.3722C32.8114 33.9761 34 32.7797 34 30.3117V20.8044C33.998 20.0257 33.8104 19.3346 33.4606 18.6815L29.8347 22.3002V29.8128H21.5265Z" fill="url(#paint1_linear_1_1034)"/>
<path d="M21.3661 27.1645L19.1407 24.9362L28.6969 15.3819L28.7048 15.374L28.7047 15.3739C28.7588 15.3174 28.8149 15.2597 28.8723 15.2007C29.5156 14.5388 30.323 13.7082 30.3196 12.4714M21.3661 27.1645L30.3196 12.4707C30.3196 12.4709 30.3196 12.4711 30.3196 12.4714M21.3661 27.1645L30.2896 18.2485L30.2896 18.2485C32.4813 16.0589 33.4741 15.0428 33.4741 13.1704V3.62844C33.4741 2.48235 33.1927 1.72878 32.7153 1.25661C32.2369 0.783398 31.4723 0.504351 30.3121 0.504351H20.8061C20.3623 0.504351 19.9519 0.573563 19.5599 0.705421L22.5091 3.65949M21.3661 27.1645L22.5091 3.65949M30.3196 12.4714V4.16389V3.65949H29.8152H22.5091M30.3196 12.4714L22.5091 3.65949" stroke="url(#paint2_linear_1_1034)"/>
<path d="M12.4716 4.18426C13.5752 4.18229 14.2845 4.94853 15.0259 5.65788L24.9386 15.5712L27.8793 12.6338L18.6054 3.3533C16.4512 1.20039 15.2874 0.0209589 13.1724 0.0209589H3.62785C1.184 0.0209589 0 1.22065 0 3.68607V13.1934C0.000653784 13.9753 0.190251 14.6657 0.538064 15.3189L4.1633 11.6995V4.18426H12.4716Z" fill="url(#paint3_linear_1_1034)"/>
<defs>
<linearGradient id="paint0_linear_1_1034" x1="7.79795" y1="33.9998" x2="7.79795" y2="6.11982" gradientUnits="userSpaceOnUse">
<stop stop-color="#B9771B"/>
<stop offset="1" stop-color="#FFEC74"/>
</linearGradient>
<linearGradient id="paint1_linear_1_1034" x1="20.0597" y1="33.9761" x2="20.0597" y2="18.4259" gradientUnits="userSpaceOnUse">
<stop stop-color="#B9771B"/>
<stop offset="1" stop-color="#FFEC74"/>
</linearGradient>
<linearGradient id="paint2_linear_1_1034" x1="26.203" y1="27.8779" x2="26.203" y2="-5.77247e-05" gradientUnits="userSpaceOnUse">
<stop stop-color="#B9771B"/>
<stop offset="1" stop-color="#FFEC74"/>
</linearGradient>
<linearGradient id="paint3_linear_1_1034" x1="13.9397" y1="15.5712" x2="13.9397" y2="0.0209589" gradientUnits="userSpaceOnUse">
<stop stop-color="#B9771B"/>
<stop offset="1" stop-color="#FFEC74"/>
</linearGradient>
</defs>
</svg>
