<svg width="26" height="25" viewBox="0 0 26 25" fill="none" xmlns="http://www.w3.org/2000/svg">
<path d="M14.3023 2.38797L16.643 7.10704C16.8695 7.56007 17.3225 7.89984 17.8133 7.97535L23.0232 8.7304C24.3067 8.91916 24.8353 10.5048 23.8915 11.4108L20.1162 15.0728C19.7387 15.4126 19.5877 15.9411 19.6632 16.4697L20.5692 21.6418C20.7958 22.9254 19.4367 23.9069 18.3041 23.3029L13.6605 20.849C13.2075 20.6225 12.6412 20.6225 12.1882 20.849L7.54462 23.3029C6.37429 23.9069 5.05295 22.9254 5.27947 21.6418L6.18553 16.4697C6.26103 15.9411 6.11002 15.4503 5.7325 15.0728L1.995 11.4108C1.05118 10.5048 1.57972 8.91916 2.8633 8.7304L8.07316 7.97535C8.60169 7.89984 9.01697 7.59782 9.24348 7.10704L11.5464 2.38797C12.0749 1.21764 13.736 1.21764 14.3023 2.38797Z" stroke="white" stroke-width="3" stroke-linecap="round" stroke-linejoin="round"/>
</svg>
