<svg width="63" height="51" viewBox="0 0 63 51" fill="none" xmlns="http://www.w3.org/2000/svg">
<path d="M54 27C54 22.86 57.36 19.5 61.5 19.5V16.5C61.5 4.5 58.5 1.5 46.5 1.5H16.5C4.5 1.5 1.5 4.5 1.5 16.5V18C5.64 18 9 21.36 9 25.5C9 29.64 5.64 33 1.5 33V34.5C1.5 46.5 4.5 49.5 16.5 49.5H46.5C58.5 49.5 61.5 46.5 61.5 34.5C57.36 34.5 54 31.14 54 27Z" stroke="white" stroke-width="3" stroke-linecap="round" stroke-linejoin="round"/>
<path d="M25.5 1.5L25.5 49.5" stroke="white" stroke-width="3" stroke-linecap="round" stroke-linejoin="round" stroke-dasharray="5 5"/>
</svg>
