<svg width="32" height="32" viewBox="0 0 32 32" fill="none" xmlns="http://www.w3.org/2000/svg">
<path fill-rule="evenodd" clip-rule="evenodd" d="M4.58325 15.9987C4.58325 9.69648 9.6977 4.58203 15.9999 4.58203C16.4141 4.58203 16.7499 4.91782 16.7499 5.33203C16.7499 5.74624 16.4141 6.08203 15.9999 6.08203C10.5261 6.08203 6.08325 10.5249 6.08325 15.9987C6.08325 19.9045 8.34268 23.2867 11.6371 24.9041C12.0089 25.0867 12.1624 25.5361 11.9798 25.9079C11.7973 26.2797 11.3479 26.4331 10.9761 26.2506C7.18783 24.3907 4.58325 20.4982 4.58325 15.9987ZM27.1969 4.8017C26.904 4.50881 26.4291 4.50881 26.1363 4.8017L22.0833 8.8547V6.39844C22.0833 5.98422 21.7475 5.64844 21.3333 5.64844C20.919 5.64844 20.5833 5.98422 20.5833 6.39844V10.6651V10.6654C20.5833 10.7005 20.5857 10.7355 20.5906 10.7704C20.5944 10.7973 20.5996 10.824 20.6063 10.8504C20.6384 10.9769 20.7039 11.0967 20.8029 11.1957C20.9544 11.3472 21.1546 11.4203 21.3531 11.4151H25.5999C26.0141 11.4151 26.3499 11.0793 26.3499 10.6651C26.3499 10.2509 26.0141 9.9151 25.5999 9.9151H23.1442L27.1969 5.86236C27.4898 5.56947 27.4898 5.09459 27.1969 4.8017ZM11.9831 14.3665C11.9831 13.6738 12.1777 13.2859 12.417 13.0637C12.665 12.8334 13.066 12.6832 13.6664 12.6832H18.3331C18.9334 12.6832 19.3344 12.8334 19.5824 13.0637C19.6133 13.0923 19.6434 13.1237 19.6724 13.1582C19.5612 13.0692 19.4202 13.016 19.2667 13.016H17.8667C17.5077 13.016 17.2167 13.307 17.2167 13.666C17.2167 14.025 17.5077 14.316 17.8667 14.316H19.2667C19.6257 14.316 19.9167 14.025 19.9167 13.666C19.9167 13.6479 19.916 13.6299 19.9145 13.6122C19.9781 13.8117 20.0164 14.0591 20.0164 14.3665V17.6332C20.0164 18.326 19.8217 18.7139 19.5824 18.9361C19.3344 19.1664 18.9334 19.3165 18.3331 19.3165H13.6664C13.066 19.3165 12.665 19.1664 12.417 18.9361C12.3844 18.9057 12.3526 18.8724 12.322 18.8355C12.434 18.9271 12.5771 18.982 12.7331 18.982H14.1331C14.4921 18.982 14.7831 18.691 14.7831 18.332C14.7831 17.973 14.4921 17.682 14.1331 17.682H12.7331C12.3741 17.682 12.0831 17.973 12.0831 18.332C12.0831 18.3514 12.0839 18.3706 12.0856 18.3895C12.0217 18.1897 11.9831 17.9417 11.9831 17.6332V16.2472C11.9831 15.8882 11.6921 15.5972 11.3331 15.5972C10.9741 15.5972 10.6831 15.8882 10.6831 16.2472V17.6332C10.6831 18.5738 10.9551 19.3526 11.5324 19.8887C12.1011 20.4167 12.8668 20.6165 13.6664 20.6165H18.3331C19.1327 20.6165 19.8984 20.4167 20.467 19.8887C21.0444 19.3526 21.3164 18.5738 21.3164 17.6332V14.3665C21.3164 13.426 21.0444 12.6472 20.467 12.1111C19.8984 11.583 19.1327 11.3832 18.3331 11.3832H13.6664C12.8668 11.3832 12.1011 11.583 11.5324 12.1111C10.9551 12.6472 10.6831 13.426 10.6831 14.3665C10.6831 14.7255 10.9741 15.0165 11.3331 15.0165C11.6921 15.0165 11.9831 14.7255 11.9831 14.3665ZM13.9499 15.9996C13.9499 14.866 14.8663 13.9496 15.9999 13.9496C17.1336 13.9496 18.0499 14.866 18.0499 15.9996C18.0499 16.3586 17.7589 16.6496 17.3999 16.6496C17.0409 16.6496 16.7499 16.3586 16.7499 15.9996C16.7499 15.5839 16.4156 15.2496 15.9999 15.2496C15.5842 15.2496 15.2499 15.5839 15.2499 15.9996C15.2499 16.4153 15.5842 16.7496 15.9999 16.7496C16.3589 16.7496 16.6499 17.0406 16.6499 17.3996C16.6499 17.7586 16.3589 18.0496 15.9999 18.0496C14.8663 18.0496 13.9499 17.1333 13.9499 15.9996ZM27.4165 16C27.4165 15.5858 27.0808 15.25 26.6665 15.25C26.2523 15.25 25.9165 15.5858 25.9165 16C25.9165 21.4738 21.4737 25.9167 15.9999 25.9167C15.5857 25.9167 15.2499 26.2525 15.2499 26.6667C15.2499 27.0809 15.5857 27.4167 15.9999 27.4167C22.3021 27.4167 27.4165 22.3022 27.4165 16Z" fill="white"/>
</svg>
