<svg width="40" height="40" viewBox="0 0 40 40" fill="none" xmlns="http://www.w3.org/2000/svg">
<path fill-rule="evenodd" clip-rule="evenodd" d="M20 5.91602C15.9058 5.91602 12.5833 9.23847 12.5833 13.3327C12.5833 17.4269 15.9058 20.7493 20 20.7493C24.0942 20.7493 27.4166 17.4269 27.4166 13.3327C27.4166 12.9185 27.0809 12.5827 26.6666 12.5827C26.2524 12.5827 25.9166 12.9185 25.9166 13.3327C25.9166 16.5985 23.2658 19.2493 20 19.2493C16.7342 19.2493 14.0833 16.5985 14.0833 13.3327C14.0833 10.0669 16.7342 7.41602 20 7.41602C21.3535 7.41602 22.5809 7.8541 23.5721 8.60927C23.9016 8.8603 24.3722 8.79671 24.6232 8.46723C24.8742 8.13775 24.8106 7.66715 24.4812 7.41612C23.2323 6.46462 21.6864 5.91602 20 5.91602ZM9.29688 33.3333C9.29688 28.7242 13.9431 24.75 20.0002 24.75C21.2127 24.75 22.3856 24.9142 23.4808 25.2163C23.8801 25.3265 24.2931 25.0921 24.4032 24.6928C24.5134 24.2935 24.279 23.8805 23.8797 23.7703C22.6548 23.4324 21.3477 23.25 20.0002 23.25C13.4173 23.25 7.79688 27.6225 7.79688 33.3333C7.79688 33.7475 8.13266 34.0833 8.54688 34.0833C8.96109 34.0833 9.29688 33.7475 9.29688 33.3333ZM25.2628 27.9746C25.2628 27.5604 25.5986 27.2246 26.0128 27.2246H27.2498V26.0273C27.2498 25.6131 27.5856 25.2773 27.9998 25.2773C28.414 25.2773 28.7498 25.6131 28.7498 26.0273V27.2246H29.9861C30.4003 27.2246 30.7361 27.5604 30.7361 27.9746C30.7361 28.3888 30.4003 28.7246 29.9861 28.7246H28.7498V30.014C28.7498 30.4282 28.414 30.764 27.9998 30.764C27.5856 30.764 27.2498 30.4282 27.2498 30.014V28.7246H26.0128C25.5986 28.7246 25.2628 28.3888 25.2628 27.9746Z" fill="#FFB78E"/>
<path d="M33.3334 27.9993C33.3334 28.426 33.2801 28.8393 33.1734 29.2393C33.0534 29.7727 32.8401 30.2927 32.5601 30.746C31.6401 32.2927 29.9467 33.3327 28.0001 33.3327C26.6267 33.3327 25.3867 32.8126 24.4534 31.9593C24.0534 31.6126 23.7067 31.1993 23.4401 30.746C22.9467 29.946 22.6667 28.9993 22.6667 27.9993C22.6667 26.5593 23.2401 25.2394 24.1734 24.2794C25.1468 23.2794 26.5067 22.666 28.0001 22.666C29.5734 22.666 31.0001 23.346 31.9601 24.4394C32.8134 25.386 33.3334 26.6393 33.3334 27.9993Z" stroke="#FFB78E" stroke-width="1.5" stroke-miterlimit="10" stroke-linecap="round" stroke-linejoin="round"/>
</svg>
