<svg width="78" height="63" viewBox="0 0 78 63" fill="none" xmlns="http://www.w3.org/2000/svg">
<path d="M57.7125 1.5H20.2125C5.85 1.5 1.8375 4.95 1.5 18.375C8.7375 18.375 14.5875 24.2625 14.5875 31.5C14.5875 38.7375 8.7375 44.5875 1.5 44.625C1.8375 58.05 5.85 61.5 20.2125 61.5H57.7125C72.7125 61.5 76.4625 57.75 76.4625 42.75V20.25C76.4625 5.25 72.7125 1.5 57.7125 1.5Z" stroke="white" stroke-width="3" stroke-linecap="round" stroke-linejoin="round"/>
<path d="M27.7051 1.5V14.625" stroke="white" stroke-width="3" stroke-linecap="round" stroke-linejoin="round"/>
<path d="M27.7051 48.375V61.5" stroke="white" stroke-width="3" stroke-linecap="round" stroke-linejoin="round"/>
<path d="M50.3255 21.4891L52.6505 26.1766C52.8755 26.6266 53.3255 26.9641 53.813 27.0391L58.988 27.7891C60.263 27.9766 60.788 29.5516 59.8505 30.4516L56.1005 34.0891C55.7255 34.4266 55.5755 34.9516 55.6505 35.4766L56.5505 40.6141C56.7755 41.8891 55.4255 42.8641 54.3005 42.2641L49.688 39.8266C49.238 39.6016 48.6755 39.6016 48.2255 39.8266L43.613 42.2641C42.4505 42.8641 41.138 41.8891 41.363 40.6141L42.263 35.4766C42.338 34.9516 42.188 34.4641 41.813 34.0891L38.1005 30.4516C37.163 29.5516 37.688 27.9766 38.963 27.7891L44.138 27.0391C44.663 26.9641 45.0755 26.6641 45.3005 26.1766L47.588 21.4891C48.113 20.3266 49.763 20.3266 50.3255 21.4891Z" stroke="white" stroke-width="3" stroke-linecap="round" stroke-linejoin="round"/>
</svg>
