<svg width="102" height="12" viewBox="0 0 102 12" fill="none" xmlns="http://www.w3.org/2000/svg">
<path d="M93.9433 12L90.8557 10.1053L93.5573 6.8502L89.5049 6.02429L90.518 2.52632L94.3775 4.17814L93.9433 0H97.5616L97.1274 4.17814L100.987 2.52632L102 6.02429L97.9475 6.8502L100.649 10.1053L97.5616 12L95.7283 8.40486L93.9433 12Z" fill="white"/>
<path d="M76.0429 12L72.9553 10.1053L75.657 6.8502L71.6045 6.02429L72.6176 2.52632L76.4771 4.17814L76.0429 0H79.6612L79.227 4.17814L83.0865 2.52632L84.0996 6.02429L80.0471 6.8502L82.7488 10.1053L79.6612 12L77.8279 8.40486L76.0429 12Z" fill="white"/>
<path d="M58.1415 12L55.0539 10.1053L57.7556 6.8502L53.7031 6.02429L54.7162 2.52632L58.5757 4.17814L58.1415 0H61.7598L61.3256 4.17814L65.1851 2.52632L66.1983 6.02429L62.1458 6.8502L64.8474 10.1053L61.7598 12L59.9266 8.40486L58.1415 12Z" fill="white"/>
<path d="M40.2412 12L37.1536 10.1053L39.8552 6.8502L35.8027 6.02429L36.8159 2.52632L40.6753 4.17814L40.2412 0H43.8594L43.4252 4.17814L47.2847 2.52632L48.2979 6.02429L44.2454 6.8502L46.947 10.1053L43.8594 12L42.0262 8.40486L40.2412 12Z" fill="white"/>
<path d="M22.3398 12L19.2522 10.1053L21.9538 6.8502L17.9014 6.02429L18.9145 2.52632L22.774 4.17814L22.3398 0H25.9581L25.5239 4.17814L29.3834 2.52632L30.3965 6.02429L26.344 6.8502L29.0457 10.1053L25.9581 12L24.1248 8.40486L22.3398 12Z" fill="white"/>
<path d="M4.43843 12L1.35082 10.1053L4.05247 6.8502L0 6.02429L1.01312 2.52632L4.87262 4.17814L4.43843 0H8.05671L7.62251 4.17814L11.482 2.52632L12.4951 6.02429L8.44266 6.8502L11.1443 10.1053L8.05671 12L6.22344 8.40486L4.43843 12Z" fill="white"/>
</svg>
