<svg width="18" height="16" viewBox="0 0 18 16" fill="none" xmlns="http://www.w3.org/2000/svg">
<path fill-rule="evenodd" clip-rule="evenodd" d="M1.54535 4.11429C1.56932 2.86016 1.76432 2.32072 2.04513 2.04308C2.34832 1.7433 2.95818 1.54286 4.42491 1.54286H13.5669C15.0381 1.54286 15.6502 1.74338 15.9544 2.04358C16.2356 2.32114 16.4307 2.86016 16.4547 4.11429H9C8.57395 4.11429 8.22857 4.45967 8.22857 4.88571C8.22857 5.31176 8.57395 5.65714 9 5.65714H16.4571V11.1394C16.4571 12.5875 16.255 13.1834 15.9549 13.4801C15.6517 13.7799 15.0418 13.9803 13.5751 13.9803C13.149 13.9803 12.8037 14.3257 12.8037 14.7518C12.8037 15.1778 13.149 15.5232 13.5751 15.5232C15.0295 15.5232 16.2464 15.3616 17.0396 14.5772C17.836 13.7899 18 12.5796 18 11.1394V4.88571V4.38377C18 2.94366 17.836 1.73288 17.0381 0.945445C16.2438 0.16153 15.025 0 13.5669 0H4.42491C2.97051 0 1.75363 0.161614 0.960357 0.945953C0.16405 1.7333 0 2.94359 0 4.38377V4.88571V11.1477C0 12.5875 0.163906 13.7985 0.960878 14.585C1.75484 15.3685 2.9722 15.5272 4.42603 15.5232H9C9.42605 15.5232 9.77143 15.1778 9.77143 14.7518C9.77143 14.3257 9.42605 13.9803 9 13.9803L4.42491 13.9803L4.42274 13.9803C2.95589 13.9845 2.34692 13.7851 2.04461 13.4868C1.74512 13.1913 1.54286 12.5961 1.54286 11.1477V5.65714H4.88571C5.31176 5.65714 5.65714 5.31176 5.65714 4.88571C5.65714 4.45967 5.31176 4.11429 4.88571 4.11429H1.54535ZM4.06287 10.6975C3.63682 10.6975 3.29144 11.0429 3.29144 11.469C3.29144 11.895 3.63682 12.2404 4.06287 12.2404H5.70858C6.13463 12.2404 6.48001 11.895 6.48001 11.469C6.48001 11.0429 6.13463 10.6975 5.70858 10.6975H4.06287ZM6.99427 11.469C6.99427 11.0429 7.33965 10.6975 7.7657 10.6975H11.0571C11.4832 10.6975 11.8286 11.0429 11.8286 11.469C11.8286 11.895 11.4832 12.2404 11.0571 12.2404H7.7657C7.33965 12.2404 6.99427 11.895 6.99427 11.469Z" fill="white"/>
</svg>
