<svg width="38" height="24" viewBox="0 0 38 24" fill="none" xmlns="http://www.w3.org/2000/svg">
<path d="M13.8633 2.56641H24.138V21.4331H13.8633V2.56641Z" fill="#B27BFF"/>
<path d="M13.8633 2.56641H24.138V21.4331H13.8633V2.56641Z" fill="#FF5F00"/>
<path d="M14.5153 12C14.5153 8.16672 16.2766 4.76666 18.9838 2.5666C16.9943 0.966633 14.4827 0 11.7428 0C5.25149 0 0 5.36659 0 12C0 18.6333 5.25149 24 11.7426 24C14.4826 24 16.9941 23.0334 18.9838 21.4332C16.2766 19.2666 14.5153 15.8333 14.5153 12Z" fill="#EB001B"/>
<path d="M37.9997 12C37.9997 18.6333 32.7482 24 26.2571 24C23.5171 24 21.0056 23.0334 19.0159 21.4332C21.7558 19.2333 23.4846 15.8333 23.4846 12C23.4846 8.16672 21.7231 4.76666 19.0159 2.5666C21.0054 0.966633 23.5171 0 26.2571 0C32.7482 0 37.9999 5.39999 37.9999 12H37.9997Z" fill="#F79E1B"/>
</svg>
