<svg width="34" height="34" viewBox="0 0 34 34" fill="none" xmlns="http://www.w3.org/2000/svg">
<path d="M5.29392 18.623L5.29403 18.6231C5.23866 18.6812 5.1812 18.7405 5.12241 18.8011C4.47983 19.4639 3.67704 20.292 3.68169 21.5285M5.29392 18.623L14.9429 33.0859C14.7773 33.167 14.6095 33.2366 14.4382 33.2943M5.29392 18.623L5.30253 18.6144L14.8603 9.06362L12.6308 6.83313L3.7087 15.7483L5.29392 18.623ZM3.68169 21.5285C3.68169 21.5289 3.6817 21.5292 3.6817 21.5296L4.1861 21.5275H3.68169V21.5285ZM3.68169 21.5285V29.8358V30.3402H4.1861H11.4889M11.4889 30.3402L11.3411 30.1921L11.698 29.8358V30.3402H11.4889ZM11.4889 30.3402L14.4382 33.2943M14.4382 33.2943L14.8305 33.6873L3.7084 15.7486C1.51833 17.9407 0.52657 18.9567 0.52657 20.8293V30.3712C0.52657 31.5177 0.80718 32.2712 1.28375 32.7433C1.76125 33.2162 2.52496 33.4953 3.68596 33.4953H13.1932C13.6364 33.4953 14.0464 33.4261 14.4382 33.2943Z" stroke="#FAB20B"/>
<path d="M21.5266 29.8128C20.4243 29.8154 19.7163 29.0524 18.971 28.3391L9.06292 18.4259L6.1196 21.3666L15.3935 30.647C17.5483 32.7992 18.7101 33.976 20.8284 33.976H30.3723C32.8115 33.976 34.0001 32.7796 34.0001 30.3116V20.8043C33.9981 20.0257 33.8105 19.3346 33.4607 18.6815L29.8349 22.3002V29.8128H21.5266Z" fill="#FAB20B"/>
<path d="M21.366 27.1645L19.1406 24.9361L28.6968 15.3819L28.7047 15.374L28.7046 15.3739C28.7587 15.3174 28.8147 15.2597 28.8721 15.2007C29.5155 14.5388 30.3228 13.7082 30.3195 12.4714M21.366 27.1645L30.3195 12.4707C30.3195 12.4709 30.3195 12.4711 30.3195 12.4714M21.366 27.1645L30.2895 18.2485L30.2895 18.2485C32.4811 16.0589 33.4739 15.0428 33.4739 13.1704V3.62849C33.4739 2.4824 33.1926 1.72883 32.7152 1.25667C32.2368 0.783456 31.4722 0.50441 30.3119 0.50441H20.806C20.3622 0.50441 19.9518 0.573622 19.5598 0.70548L22.509 3.65953M21.366 27.1645L22.509 3.65953M30.3195 12.4714V4.16394V3.65953H29.8151H22.509M30.3195 12.4714L22.509 3.65953" stroke="#FAB20B"/>
<path d="M12.4715 4.1843C13.5751 4.18234 14.2845 4.94857 15.0258 5.65792L24.9385 15.5712L27.8792 12.6338L18.6053 3.35334C16.4511 1.20044 15.2874 0.0210204 13.1724 0.0210204H3.62783C1.184 0.0210204 0 1.22071 0 3.68612V13.1934C0.000653781 13.9753 0.19025 14.6657 0.538062 15.3188L4.16328 11.6995V4.1843H12.4715Z" fill="#FAB20B"/>
</svg>
