<svg width="103" height="12" viewBox="0 0 103 12" fill="none" xmlns="http://www.w3.org/2000/svg">
<path d="M94.0202 12L90.93 10.1053L93.6339 6.8502L89.5781 6.02429L90.5921 2.52632L94.4547 4.17814L94.0202 0H97.6414L97.2069 4.17814L101.07 2.52632L102.083 6.02429L98.0277 6.8502L100.732 10.1053L97.6414 12L95.8067 8.40486L94.0202 12Z" fill="black"/>
<path d="M76.1051 12L73.015 10.1053L75.7189 6.8502L71.6631 6.02429L72.677 2.52632L76.5397 4.17814L76.1051 0H79.7264L79.2918 4.17814L83.1545 2.52632L84.1684 6.02429L80.1126 6.8502L82.8165 10.1053L79.7264 12L77.8916 8.40486L76.1051 12Z" fill="black"/>
<path d="M58.1889 12L55.0988 10.1053L57.8026 6.8502L53.7468 6.02429L54.7608 2.52632L58.6234 4.17814L58.1889 0H61.8101L61.3756 4.17814L65.2382 2.52632L66.2522 6.02429L62.1964 6.8502L64.9002 10.1053L61.8101 12L59.9754 8.40486L58.1889 12Z" fill="black"/>
<path d="M40.2741 12L37.184 10.1053L39.8878 6.8502L35.832 6.02429L36.846 2.52632L40.7086 4.17814L40.2741 0H43.8953L43.4608 4.17814L47.3234 2.52632L48.3374 6.02429L44.2816 6.8502L46.9855 10.1053L43.8953 12L42.0606 8.40486L40.2741 12Z" fill="black"/>
<path d="M22.3581 12L19.2679 10.1053L21.9718 6.8502L17.916 6.02429L18.93 2.52632L22.7926 4.17814L22.3581 0H25.9793L25.5448 4.17814L29.4074 2.52632L30.4214 6.02429L26.3656 6.8502L29.0694 10.1053L25.9793 12L24.1445 8.40486L22.3581 12Z" fill="black"/>
<path d="M4.44206 12L1.35193 10.1053L4.05579 6.8502L0 6.02429L1.01395 2.52632L4.87661 4.17814L4.44206 0H8.0633L7.62875 4.17814L11.4914 2.52632L12.5054 6.02429L8.44957 6.8502L11.1534 10.1053L8.0633 12L6.22854 8.40486L4.44206 12Z" fill="black"/>
</svg>
